# xmcd CD database file
#
# Track frame offsets:
#	150
#	23665
#	38780
#	57435
#	84080
#	102647
#	120937
#	138895
#	160225
#	179910
#	197760
#	212817
#	238972
#
# Disc length: 3476 seconds
#
# Revision: 1
# Processed by: cddbd v1.5PL3 Copyright (c) Steve Scherf et al.
# Submitted via: CDex 1.51
#
DISCID=b30d920d
DTITLE=Bruce Brothers Band - Little Hound Blues
DYEAR=1996
DGENRE=Blues
TTITLE0=I Got My Mojo Working
TTITLE1=Tore Down
TTITLE2=Lost in the Shuffle
TTITLE3=Stormy Monday
TTITLE4=Unrequited Self Love
TTITLE5=Crossroads
TTITLE6=Little Hound Blues
TTITLE7=A Lot of Love
TTITLE8=Sweet Home Chicago
TTITLE9=Who's Been Talking?
TTITLE10=Statesboro Blues
TTITLE11=Funky Broadway - Mother Popcorn  (You got to have a Mother for Me)
TTITLE12=Last Call Blues
EXTD=YEAR: 1996
EXTT0=
EXTT1=
EXTT2=
EXTT3=
EXTT4=
EXTT5=
EXTT6=
EXTT7=
EXTT8=
EXTT9=
EXTT10=
EXTT11=
EXTT12=
PLAYORDER=
